<svg xmlns="http://www.w3.org/2000/svg"  viewBox="0 0 333333 333333" shape-rendering="geometricPrecision" text-rendering="geometricPrecision" image-rendering="optimizeQuality" fill-rule="evenodd" clip-rule="evenodd"><path d="M302077 0H31255C14069 0 1 14068 1 31256v270822c0 17186 14068 31254 31254 31254h270822c17186 0 31254-14068 31254-31254l2-270824C333333 14068 319265 0 302079 0h-2zM116280 282807c12893-11499 21743-27876 26064-44672 1743-6620 8851-33730 8851-33730 4600 8851 18190 16308 32476 16308 42791 0 73594-39306 73594-88300 0-46902-38261-81957-87463-81957-61259 0-93735 41119-93735 85860 0 20768 11081 46693 28783 54917 2648 1324 4111 697 4739-1951 418-2021 2857-11569 3972-16099 348-1394 209-2718-976-4111-5854-7109-10593-20210-10593-32337 0-31291 23695-61607 64047-61607 34846 0 59238 23695 59238 57705 0 38400-19374 65023-44603 65023-13939 0-24393-11500-20977-25646 4042-16865 11778-35056 11778-47182 0-10872-5784-19931-17981-19931-14287 0-25646 14705-25646 34498 0 12544 4182 21047 4182 21047s-14078 59447-16656 70528c-2857 12266-1743 29480-488 40700l1254 11011 140-70z" fill="#bd081c"/></svg>